<?xml version="1.0" encoding="utf-8" standalone="no"?>
<svg xmlns:dc="http://purl.org/dc/elements/1.1/" xmlns:cc="http://creativecommons.org/ns#" xmlns:rdf="http://www.w3.org/1999/02/22-rdf-syntax-ns#" xmlns:svg="http://www.w3.org/2000/svg" xmlns="http://www.w3.org/2000/svg" xmlns:sodipodi="http://sodipodi.sourceforge.net/DTD/sodipodi-0.dtd" xmlns:inkscape="http://www.inkscape.org/namespaces/inkscape" id="svg6480" version="1.1" inkscape:version="0.91 r13725" width="335.94623" height="65.021263" viewBox="0 0 335.94623 65.02127">
<metadata id="metadata6486"/>
<defs id="defs6484">
<clipPath id="clipPath6512">
<path d="m 0,168.017 423.157,0 L 423.157,0 0,0 0,168.017 Z" id="path6514"/>
</clipPath>
</defs>
<g id="g6488" inkscape:label="marchi Unical" transform="matrix(1.25,0,0,-1.25,0,65.021155)">
<path d="m 3.1592453,22.054807 32.1179997,0 0,-5.353 -32.1179997,0 0,5.353 z" style="fill:#b71e24;fill-opacity:1;fill-rule:evenodd;stroke:none" id="path6490"/>
<path d="m 3.1592453,28.740807 32.1179997,0 0,-5.356 -32.1179997,0 0,5.356 z" style="fill:#b71e24;fill-opacity:1;fill-rule:evenodd;stroke:none" id="path6492"/>
<path d="m 3.1592453,35.431807 32.1179997,0 0,-5.353 -32.1179997,0 0,5.353 z" style="fill:#b71e24;fill-opacity:1;fill-rule:evenodd;stroke:none" id="path6494"/>
<path d="m 3.1592453,42.125807 32.1179997,0 0,-5.352 -32.1179997,0 0,5.352 z" style="fill:#b71e24;fill-opacity:1;fill-rule:evenodd;stroke:none" id="path6496"/>
<path d="m 3.1592453,48.814807 32.1179997,0 0,-5.352 -32.1179997,0 0,5.352 z" style="fill:#b71e24;fill-opacity:1;fill-rule:evenodd;stroke:none" id="path6498"/>
<g id="g6500" transform="translate(36.616645,16.701407)">
<path d="M 0,0 12.047,12.04 0,12.04 0,0 Z" style="fill:#231f20;fill-opacity:1;fill-rule:evenodd;stroke:none" id="path6502"/>
</g>
<path d="m 36.616245,35.431807 16.02,0 0,-5.353 -16.02,0 0,5.353 z" style="fill:#918f90;fill-opacity:1;fill-rule:evenodd;stroke:none" id="path6504"/>
<path d="m 36.616245,42.125807 16.02,0 0,-5.352 -16.02,0 0,5.352 z" style="fill:#918f90;fill-opacity:1;fill-rule:evenodd;stroke:none" id="path6506"/>
<g id="g6508" transform="translate(-76.562755,-60.502193)">
<g id="g6510" clip-path="url(#clipPath6512)">
<g id="g6516" transform="translate(151.4195,83.9639)">
<path d="m 0,0 c -1.215,0 -2.308,0.189 -3.246,0.562 -0.95,0.377 -1.724,0.928 -2.3,1.637 -0.405,0.516 -0.699,1.143 -0.875,1.865 -0.171,0.707 -0.258,1.824 -0.258,3.321 l 0,8.261 c 0,0.729 -0.079,1.25 -0.235,1.547 -0.134,0.256 -0.341,0.381 -0.651,0.394 l -0.24,0.01 0,0.957 5.301,0 0,-0.957 -0.239,-0.01 C -3.056,17.574 -3.262,17.453 -3.395,17.205 -3.55,16.915 -3.629,16.39 -3.629,15.646 l 0,-8.751 c 0,-1.982 0.331,-3.387 0.984,-4.175 0.642,-0.774 1.769,-1.166 3.351,-1.166 0.749,0 1.398,0.079 1.93,0.235 C 3.16,1.942 3.631,2.183 4.035,2.504 4.549,2.923 4.918,3.508 5.129,4.24 5.35,5.001 5.461,6.333 5.461,8.199 l 0,5.83 c 0,1.172 -0.132,2.06 -0.392,2.64 -0.24,0.538 -0.603,0.839 -1.11,0.921 l -0.21,0.034 0,0.93 4.642,0 0,-0.902 -0.177,-0.054 C 7.71,17.443 7.364,17.125 7.157,16.623 6.936,16.085 6.823,15.172 6.823,13.91 l 0,-5.735 C 6.823,6.505 6.734,5.23 6.561,4.383 6.382,3.518 6.083,2.801 5.672,2.254 5.076,1.492 4.301,0.92 3.366,0.55 2.442,0.185 1.311,0 0,0" style="fill:#231f20;fill-opacity:1;fill-rule:nonzero;stroke:none" id="path6518"/>
</g>
<g id="g6520" transform="translate(175.4449,84.167)">
<path d="m 0,0 -1.385,0 -0.074,0.104 -10.681,14.954 0,-10.821 c 0,-0.937 0.138,-1.678 0.409,-2.202 0.257,-0.495 0.622,-0.784 1.114,-0.882 l 0.201,-0.04 0,-0.922 -4.75,0 0,0.891 0.163,0.061 c 0.528,0.195 0.902,0.508 1.142,0.956 0.246,0.459 0.371,1.114 0.371,1.946 l 0,11.254 c 0,0.722 -0.108,1.255 -0.319,1.583 -0.197,0.304 -0.499,0.469 -0.922,0.503 l -0.231,0.018 0,0.948 4.102,0 0.074,-0.105 9.424,-13.227 0,7.921 c 0,1.605 -0.131,2.746 -0.39,3.392 -0.239,0.599 -0.637,0.944 -1.216,1.056 l -0.202,0.039 0,0.924 4.439,0 0,-0.857 L 1.148,17.42 C 0.727,17.163 0.438,16.791 0.269,16.285 0.09,15.754 0,14.689 0,13.12 L 0,0 Z" style="fill:#231f20;fill-opacity:1;fill-rule:nonzero;stroke:none" id="path6522"/>
</g>
<g id="g6524" transform="translate(183.6324,84.3584)">
<path d="m 0,0 -5.301,0 0,0.94 0.236,0.015 c 0.32,0.019 0.53,0.146 0.661,0.398 0.152,0.294 0.229,0.805 0.229,1.519 l 0,12.379 c 0,0.73 -0.079,1.25 -0.235,1.548 -0.134,0.256 -0.341,0.381 -0.652,0.393 l -0.239,0.011 0,0.956 5.301,0 0,-0.956 -0.239,-0.011 C -0.552,17.18 -0.758,17.058 -0.891,16.81 -1.046,16.52 -1.125,15.996 -1.125,15.251 l 0,-12.379 c 0,-0.729 0.077,-1.244 0.229,-1.529 0.128,-0.244 0.337,-0.364 0.656,-0.376 L 0,0.957 0,0 Z" style="fill:#231f20;fill-opacity:1;fill-rule:nonzero;stroke:none" id="path6526"/>
</g>
<g id="g6528" transform="translate(193.1558,83.9639)">
<path d="m 0,0 -1.859,0 -5.278,15.421 c -0.23,0.677 -0.468,1.196 -0.706,1.544 -0.22,0.322 -0.47,0.537 -0.738,0.638 l -0.162,0.061 0,0.89 5.229,0 0,-0.921 -0.2,-0.041 c -0.217,-0.045 -0.382,-0.126 -0.489,-0.242 -0.1,-0.108 -0.149,-0.254 -0.149,-0.447 0,-0.054 0.007,-0.151 0.042,-0.304 0.031,-0.141 0.078,-0.314 0.139,-0.522 L -0.146,4.056 3.301,15.109 c 0.042,0.151 0.076,0.313 0.097,0.479 0.024,0.17 0.035,0.336 0.035,0.501 0,0.371 -0.103,0.714 -0.305,1.016 -0.192,0.289 -0.406,0.447 -0.655,0.485 l -0.213,0.032 0,0.932 4.642,0 0,-0.882 -0.151,-0.065 C 6.237,17.388 5.802,17.029 5.455,16.542 5.098,16.041 4.763,15.303 4.46,14.349 L 0,0 Z" style="fill:#231f20;fill-opacity:1;fill-rule:nonzero;stroke:none" id="path6530"/>
</g>
<g id="g6532" transform="translate(213.9312,84.3584)">
<path d="m 0,0 -13.213,0 0,0.962 0.245,0.005 c 0.308,0.006 0.513,0.127 0.645,0.381 0.156,0.298 0.235,0.81 0.235,1.524 l 0,12.379 c 0,0.745 -0.079,1.269 -0.234,1.559 -0.133,0.248 -0.339,0.37 -0.652,0.382 l -0.239,0.011 0,0.956 12.812,0 0.325,-3.9 -0.948,-0.133 -0.07,0.189 c -0.343,0.934 -0.852,1.585 -1.51,1.937 -0.679,0.362 -2.062,0.545 -4.11,0.545 l -0.754,0 c -1.141,0 -1.387,-0.127 -1.436,-0.166 -0.042,-0.034 -0.182,-0.206 -0.182,-0.961 l 0,-4.778 2.301,0 c 1.298,0 2.215,0.119 2.726,0.355 0.487,0.223 0.817,0.607 1.012,1.176 l 0.058,0.169 0.836,0 0,-4.702 -0.861,0 -0.057,0.168 c -0.194,0.56 -0.481,0.949 -0.855,1.156 -0.269,0.15 -0.924,0.328 -2.512,0.328 l -2.648,0 0,-6.741 c 0,-0.943 0.194,-1.18 0.277,-1.239 0.12,-0.084 0.518,-0.224 1.856,-0.224 1.275,0 2.197,0.028 2.74,0.082 0.531,0.054 1.003,0.143 1.4,0.266 0.49,0.164 0.973,0.448 1.431,0.843 0.471,0.405 0.977,0.984 1.505,1.722 L 0.251,4.43 1.137,3.955 0,0 Z" style="fill:#231f20;fill-opacity:1;fill-rule:nonzero;stroke:none" id="path6534"/>
</g>
<g id="g6536" transform="translate(220.3365,93.7232)">
<path d="m 0,0 c 0.164,-0.026 0.345,-0.046 0.539,-0.06 0.286,-0.019 0.635,-0.029 1.043,-0.029 1.94,0 3.389,0.327 4.303,0.972 0.9,0.635 1.338,1.59 1.338,2.92 0,1.299 -0.404,2.316 -1.198,3.022 C 5.222,7.538 4.058,7.899 2.563,7.899 1.56,7.899 0.867,7.77 0.506,7.514 0.17,7.277 0,6.807 0,6.114 L 0,0 Z m 10.859,-11.502 -0.347,0.146 C 8.767,-10.618 7.171,-9.357 5.769,-7.607 4.406,-5.906 3.254,-3.768 2.341,-1.25 2.238,-1.251 2.111,-1.254 1.961,-1.259 1.701,-1.267 1.512,-1.271 1.391,-1.271 1.076,-1.271 0.612,-1.258 0,-1.231 l 0,-5.262 c 0,-0.729 0.079,-1.245 0.234,-1.534 0.133,-0.247 0.338,-0.365 0.647,-0.371 l 0.245,-0.005 0,-0.962 -5.253,0 0,0.962 0.245,0.005 c 0.308,0.006 0.513,0.127 0.645,0.381 0.156,0.298 0.235,0.81 0.235,1.524 l 0,12.379 c 0,0.745 -0.079,1.269 -0.234,1.559 -0.133,0.248 -0.339,0.37 -0.652,0.383 l -0.239,0.01 0,0.945 4.236,0.202 C 0.703,9.01 1.188,9.028 1.568,9.04 1.95,9.052 2.234,9.058 2.42,9.058 4.829,9.058 6.78,8.577 8.221,7.628 9.693,6.656 10.44,5.345 10.44,3.732 10.44,2.539 9.975,1.501 9.055,0.646 8.209,-0.142 7.057,-0.693 5.625,-0.996 c 0.831,-2.339 1.682,-4.316 2.528,-5.88 0.871,-1.611 1.752,-2.803 2.618,-3.545 l 0.088,-0.075 0,-1.006 z" style="fill:#231f20;fill-opacity:1;fill-rule:nonzero;stroke:none" id="path6538"/>
</g>
<g id="g6540" transform="translate(238.775,83.9639)">
<path d="M 0,0 C -1.189,0 -2.349,0.202 -3.444,0.601 -4.543,1.002 -5.55,1.589 -6.436,2.346 l -0.122,0.104 1.062,3.772 0.927,-0.164 0.036,-0.163 c 0.33,-1.5 0.925,-2.669 1.766,-3.477 0.83,-0.796 1.849,-1.2 3.03,-1.2 1.055,0 1.92,0.298 2.568,0.887 0.649,0.59 0.965,1.338 0.965,2.287 0,0.888 -0.258,1.614 -0.765,2.158 -0.526,0.565 -1.67,1.199 -3.398,1.884 l -0.671,0.263 c -1.702,0.658 -2.824,1.289 -3.43,1.928 -0.441,0.466 -0.78,0.981 -1.008,1.532 -0.226,0.549 -0.341,1.139 -0.341,1.753 0,1.432 0.537,2.643 1.597,3.598 1.053,0.948 2.388,1.429 3.968,1.429 0.86,0 1.759,-0.151 2.67,-0.449 0.905,-0.297 1.836,-0.743 2.767,-1.325 L 5.34,17.066 4.444,13.62 3.567,13.791 3.528,13.943 c -0.305,1.184 -0.822,2.116 -1.537,2.77 -0.703,0.643 -1.539,0.97 -2.482,0.97 -0.946,0 -1.709,-0.247 -2.266,-0.734 -0.555,-0.486 -0.824,-1.112 -0.824,-1.914 0,-0.722 0.227,-1.306 0.695,-1.788 0.484,-0.499 1.47,-1.057 2.933,-1.656 0.158,-0.063 0.39,-0.159 0.696,-0.288 C 2.857,10.453 4.188,9.743 4.809,9.131 5.276,8.68 5.633,8.151 5.865,7.56 6.096,6.973 6.212,6.306 6.212,5.577 6.212,3.97 5.62,2.623 4.453,1.572 3.293,0.529 1.794,0 0,0" style="fill:#231f20;fill-opacity:1;fill-rule:nonzero;stroke:none" id="path6542"/>
</g>
<g id="g6544" transform="translate(252.0845,84.3584)">
<path d="m 0,0 -5.301,0 0,0.94 0.236,0.015 c 0.32,0.019 0.53,0.146 0.661,0.398 0.152,0.294 0.229,0.805 0.229,1.519 l 0,12.379 c 0,0.73 -0.079,1.25 -0.235,1.548 -0.134,0.256 -0.341,0.381 -0.652,0.393 l -0.239,0.011 0,0.956 5.301,0 0,-0.956 -0.239,-0.011 C -0.552,17.18 -0.758,17.058 -0.891,16.81 -1.046,16.52 -1.125,15.996 -1.125,15.251 l 0,-12.379 c 0,-0.729 0.077,-1.244 0.229,-1.529 0.128,-0.244 0.337,-0.364 0.656,-0.376 L 0,0.957 0,0 Z" style="fill:#231f20;fill-opacity:1;fill-rule:nonzero;stroke:none" id="path6546"/>
</g>
<g id="g6548" transform="translate(263.6197,84.3584)">
<path d="m 0,0 -5.35,0 0.025,0.957 0.233,0.01 c 0.311,0.012 0.515,0.135 0.644,0.386 0.153,0.294 0.23,0.805 0.23,1.519 l 0,13.457 c 0,0.337 -0.056,0.413 -0.058,0.416 0,0 -0.07,0.052 -0.35,0.052 -1.314,0 -2.324,-0.206 -3.003,-0.611 -0.68,-0.406 -1.32,-1.14 -1.903,-2.182 l -0.109,-0.195 -0.945,0.399 1.038,3.951 13.722,0 1.039,-3.951 -0.945,-0.4 -0.11,0.197 c -0.581,1.048 -1.219,1.784 -1.896,2.186 -0.675,0.402 -1.68,0.606 -2.986,0.606 -0.311,0 -0.378,-0.062 -0.379,-0.063 -0.001,-0.003 -0.065,-0.075 -0.065,-0.405 l 0,-13.457 c 0,-0.72 0.082,-1.233 0.244,-1.525 0.141,-0.253 0.351,-0.374 0.66,-0.38 L -0.024,0.962 0,0 Z" style="fill:#231f20;fill-opacity:1;fill-rule:nonzero;stroke:none" id="path6550"/>
</g>
<g id="g6552" transform="translate(272.1655,91.4551)">
<path d="M 0,0 4.813,0 2.496,7.645 0,0 Z m 10.854,-7.097 -5.284,0 0,0.919 0.198,0.042 c 0.206,0.045 0.366,0.13 0.489,0.259 0.11,0.116 0.164,0.249 0.164,0.407 0,0.097 -0.033,0.32 -0.193,0.837 l -1.011,3.272 -5.667,0 -0.711,-2.187 c -0.067,-0.22 -0.118,-0.439 -0.153,-0.646 -0.034,-0.207 -0.05,-0.386 -0.05,-0.545 0,-0.4 0.087,-0.72 0.258,-0.954 0.167,-0.23 0.408,-0.374 0.739,-0.442 l 0.2,-0.041 0,-0.921 -4.81,0 0,0.896 0.169,0.057 c 0.555,0.191 1.027,0.553 1.405,1.078 0.393,0.546 0.806,1.491 1.227,2.809 l 4.475,13.702 1.907,0 0.056,-0.173 4.884,-15.048 c 0.272,-0.846 0.538,-1.465 0.792,-1.842 0.219,-0.328 0.442,-0.5 0.662,-0.512 l 0.23,-0.013 0.024,-0.954 z" style="fill:#231f20;fill-opacity:1;fill-rule:nonzero;stroke:none" id="path6554"/>
</g>
<g id="g6556" transform="translate(278.1323,103.7295)">
<path d="m 0,0 -1.463,0 -4.011,2.492 c -0.281,0.181 -0.484,0.362 -0.627,0.555 -0.154,0.21 -0.233,0.433 -0.233,0.663 0,0.308 0.107,0.57 0.32,0.777 0.354,0.345 0.913,0.424 1.418,0.134 0.191,-0.108 0.428,-0.31 0.726,-0.617 L 0,0 Z" style="fill:#231f20;fill-opacity:1;fill-rule:nonzero;stroke:none" id="path6558"/>
</g>
<g id="g6560" transform="translate(150.6529,79.9551)">
<path d="M 0,0 C -1.61,0 -2.257,-0.199 -2.516,-0.366 -2.857,-0.588 -3.03,-1.064 -3.03,-1.785 l 0,-12.666 c 0,-0.54 0.109,-0.902 0.325,-1.074 0.131,-0.105 0.525,-0.281 1.7,-0.281 2.579,0 4.412,0.577 5.448,1.714 1.041,1.145 1.569,3.158 1.569,5.986 0,2.741 -0.505,4.805 -1.5,6.136 C 3.532,-0.663 2.014,0 0,0 m -0.383,-17.036 -6.774,0 0,0.962 0.245,0.005 c 0.308,0.006 0.513,0.127 0.644,0.381 0.157,0.297 0.236,0.81 0.236,1.524 l 0,12.379 c 0,0.744 -0.079,1.268 -0.235,1.558 -0.132,0.248 -0.338,0.371 -0.651,0.383 l -0.239,0.01 0,0.949 4.169,0.128 c 0.297,0.008 0.591,0.014 0.884,0.018 0.292,0.004 0.659,0.006 1.099,0.006 1.284,0 2.361,-0.08 3.2,-0.238 C 3.039,0.87 3.817,0.611 4.508,0.258 5.959,-0.48 7.122,-1.62 7.965,-3.129 8.804,-4.633 9.229,-6.34 9.229,-8.202 c 0,-2.75 -0.861,-4.935 -2.559,-6.493 -1.691,-1.553 -4.065,-2.341 -7.053,-2.341" style="fill:#231f20;fill-opacity:1;fill-rule:nonzero;stroke:none" id="path6562"/>
</g>
<g id="g6564" transform="translate(174.9527,62.919)">
<path d="m 0,0 -13.213,0 0,0.962 0.245,0.005 c 0.308,0.006 0.513,0.127 0.645,0.381 0.156,0.298 0.235,0.81 0.235,1.524 l 0,12.379 c 0,0.744 -0.079,1.269 -0.234,1.559 -0.133,0.248 -0.339,0.37 -0.652,0.382 l -0.239,0.01 0,0.957 12.812,0 0.325,-3.9 -0.948,-0.133 -0.07,0.189 c -0.343,0.934 -0.852,1.585 -1.51,1.937 -0.679,0.361 -2.062,0.545 -4.11,0.545 l -0.754,0 c -1.141,0 -1.387,-0.127 -1.436,-0.166 -0.042,-0.034 -0.182,-0.205 -0.182,-0.961 l 0,-4.778 2.301,0 c 1.298,0 2.215,0.119 2.726,0.355 0.487,0.223 0.817,0.607 1.012,1.176 l 0.058,0.169 0.836,0 0,-4.702 -0.861,0 -0.057,0.169 C -3.265,8.618 -3.552,9.007 -3.926,9.214 -4.195,9.363 -4.85,9.542 -6.438,9.542 l -2.648,0 0,-6.741 c 0,-0.943 0.194,-1.181 0.277,-1.239 0.12,-0.083 0.518,-0.224 1.856,-0.224 1.275,0 2.197,0.027 2.74,0.083 0.531,0.054 1.003,0.142 1.4,0.266 0.49,0.163 0.973,0.447 1.431,0.842 0.471,0.405 0.977,0.984 1.505,1.722 L 0.251,4.43 1.137,3.955 0,0 Z" style="fill:#231f20;fill-opacity:1;fill-rule:nonzero;stroke:none" id="path6566"/>
</g>
<g id="g6568" transform="translate(189.7095,62.919)">
<path d="m 0,0 -12.359,0 0,0.94 0.235,0.015 c 0.32,0.019 0.53,0.146 0.661,0.399 0.152,0.293 0.23,0.804 0.23,1.518 l 0,12.379 c 0,0.729 -0.08,1.251 -0.236,1.548 -0.134,0.256 -0.341,0.381 -0.651,0.393 l -0.239,0.01 0,0.957 5.3,0 0,-0.957 -0.239,-0.01 C -7.61,17.18 -7.816,17.058 -7.949,16.81 -8.104,16.52 -8.184,15.995 -8.184,15.251 l 0,-12.45 c 0,-0.925 0.182,-1.16 0.26,-1.219 0.109,-0.082 0.449,-0.22 1.502,-0.22 1.256,0 2.189,0.057 2.773,0.169 0.572,0.11 1.091,0.296 1.545,0.553 0.289,0.162 0.605,0.425 0.942,0.78 0.342,0.362 0.723,0.836 1.134,1.41 L 0.079,4.425 1.011,4.113 0,0 Z" style="fill:#231f20;fill-opacity:1;fill-rule:nonzero;stroke:none" id="path6570"/>
</g>
<g id="g6572" transform="translate(204.2545,62.919)">
<path d="m 0,0 -12.359,0 0,0.94 0.235,0.015 c 0.32,0.019 0.53,0.146 0.661,0.399 0.152,0.293 0.23,0.804 0.23,1.518 l 0,12.379 c 0,0.729 -0.08,1.251 -0.236,1.548 -0.134,0.256 -0.341,0.381 -0.651,0.393 l -0.239,0.01 0,0.957 5.3,0 0,-0.957 -0.239,-0.01 C -7.61,17.18 -7.816,17.058 -7.949,16.81 -8.104,16.52 -8.184,15.995 -8.184,15.251 l 0,-12.45 c 0,-0.925 0.182,-1.16 0.26,-1.219 0.109,-0.082 0.449,-0.22 1.502,-0.22 1.256,0 2.189,0.057 2.773,0.169 0.572,0.11 1.091,0.296 1.545,0.553 0.289,0.162 0.605,0.425 0.942,0.78 0.342,0.362 0.723,0.836 1.134,1.41 L 0.079,4.425 1.011,4.113 0,0 Z" style="fill:#231f20;fill-opacity:1;fill-rule:nonzero;stroke:none" id="path6574"/>
</g>
<g id="g6576" transform="translate(210.5074,70.0156)">
<path d="M 0,0 4.813,0 2.496,7.645 0,0 Z m 10.854,-7.097 -5.284,0 0,0.918 0.198,0.043 c 0.206,0.045 0.366,0.13 0.489,0.259 0.11,0.116 0.164,0.249 0.164,0.407 0,0.097 -0.033,0.321 -0.193,0.836 l -1.011,3.273 -5.667,0 -0.711,-2.187 c -0.067,-0.221 -0.118,-0.439 -0.153,-0.645 -0.034,-0.208 -0.05,-0.387 -0.05,-0.546 0,-0.4 0.087,-0.721 0.258,-0.954 0.167,-0.23 0.408,-0.374 0.739,-0.442 l 0.2,-0.041 0,-0.921 -4.81,0 0,0.896 0.169,0.057 c 0.555,0.191 1.027,0.553 1.405,1.079 0.393,0.545 0.806,1.49 1.227,2.808 l 4.475,13.702 1.907,0 0.056,-0.173 4.884,-15.048 C 9.418,-4.621 9.684,-5.24 9.938,-5.617 10.157,-5.945 10.38,-6.118 10.6,-6.13 l 0.23,-0.013 0.024,-0.954 z" style="fill:#231f20;fill-opacity:1;fill-rule:nonzero;stroke:none" id="path6578"/>
</g>
<g id="g6580" transform="translate(237.6002,62.5244)">
<path d="m 0,0 c -2.441,0 -4.427,0.827 -5.902,2.458 -1.469,1.624 -2.213,3.809 -2.213,6.495 0,1.685 0.282,3.236 0.838,4.613 0.557,1.381 1.39,2.582 2.476,3.57 0.619,0.57 1.39,1.018 2.288,1.332 1.76,0.613 3.761,0.65 5.822,-0.06 1.005,-0.346 2.065,-0.884 3.15,-1.596 L 6.616,16.709 5.574,13.355 4.646,13.494 4.599,13.642 c -0.431,1.329 -1.063,2.351 -1.88,3.04 -0.808,0.679 -1.795,1.024 -2.935,1.024 -1.491,0 -2.664,-0.641 -3.584,-1.958 -0.928,-1.327 -1.397,-3.126 -1.397,-5.346 0,-2.504 0.601,-4.574 1.788,-6.153 1.185,-1.58 2.653,-2.349 4.487,-2.349 1.051,0 2.026,0.263 2.901,0.78 0.884,0.522 1.72,1.328 2.487,2.396 L 6.61,5.277 7.447,4.688 7.324,4.488 C 6.39,2.961 5.318,1.819 4.142,1.097 2.959,0.369 1.565,0 0,0" style="fill:#231f20;fill-opacity:1;fill-rule:nonzero;stroke:none" id="path6582"/>
</g>
<g id="g6584" transform="translate(248.9478,70.0156)">
<path d="M 0,0 4.813,0 2.496,7.645 0,0 Z m 10.854,-7.097 -5.284,0 0,0.918 0.198,0.043 c 0.206,0.045 0.366,0.13 0.489,0.259 0.11,0.116 0.164,0.249 0.164,0.407 0,0.097 -0.033,0.321 -0.193,0.836 l -1.011,3.273 -5.667,0 -0.711,-2.187 c -0.067,-0.221 -0.118,-0.439 -0.153,-0.645 -0.034,-0.208 -0.05,-0.387 -0.05,-0.546 0,-0.4 0.087,-0.721 0.258,-0.954 0.167,-0.23 0.408,-0.374 0.739,-0.442 l 0.2,-0.041 0,-0.921 -4.81,0 0,0.896 0.169,0.057 c 0.555,0.191 1.027,0.553 1.405,1.079 0.393,0.545 0.806,1.49 1.227,2.808 l 4.475,13.702 1.907,0 0.056,-0.173 4.884,-15.048 C 9.418,-4.621 9.684,-5.24 9.938,-5.617 10.157,-5.945 10.38,-6.118 10.6,-6.13 l 0.23,-0.013 0.024,-0.954 z" style="fill:#231f20;fill-opacity:1;fill-rule:nonzero;stroke:none" id="path6586"/>
</g>
<g id="g6588" transform="translate(272.7798,62.919)">
<path d="m 0,0 -12.359,0 0,0.94 0.235,0.015 c 0.32,0.019 0.53,0.146 0.661,0.399 0.152,0.293 0.23,0.804 0.23,1.518 l 0,12.379 c 0,0.729 -0.08,1.251 -0.236,1.548 -0.134,0.256 -0.341,0.381 -0.651,0.393 l -0.239,0.01 0,0.957 5.3,0 0,-0.957 -0.239,-0.01 C -7.61,17.18 -7.816,17.058 -7.949,16.81 -8.104,16.52 -8.184,15.995 -8.184,15.251 l 0,-12.45 c 0,-0.925 0.182,-1.16 0.26,-1.219 0.109,-0.082 0.449,-0.22 1.502,-0.22 1.256,0 2.189,0.057 2.773,0.169 0.572,0.11 1.091,0.296 1.545,0.553 0.289,0.162 0.605,0.425 0.942,0.78 0.342,0.362 0.723,0.836 1.134,1.41 L 0.079,4.425 1.011,4.113 0,0 Z" style="fill:#231f20;fill-opacity:1;fill-rule:nonzero;stroke:none" id="path6590"/>
</g>
<g id="g6592" transform="translate(278.567,70.0156)">
<path d="M 0,0 4.813,0 2.496,7.645 0,0 Z m 10.854,-7.097 -5.284,0 0,0.918 0.198,0.043 c 0.206,0.045 0.366,0.13 0.489,0.259 0.11,0.116 0.164,0.249 0.164,0.407 0,0.097 -0.033,0.321 -0.193,0.836 l -1.011,3.273 -5.667,0 -0.711,-2.187 c -0.067,-0.221 -0.118,-0.439 -0.153,-0.645 -0.034,-0.208 -0.05,-0.387 -0.05,-0.546 0,-0.4 0.087,-0.721 0.258,-0.954 0.167,-0.23 0.408,-0.374 0.739,-0.442 l 0.2,-0.041 0,-0.921 -4.81,0 0,0.896 0.169,0.057 c 0.555,0.191 1.027,0.553 1.405,1.079 0.393,0.545 0.806,1.49 1.227,2.808 l 4.475,13.702 1.907,0 0.056,-0.173 4.884,-15.048 C 9.418,-4.621 9.684,-5.24 9.938,-5.617 10.157,-5.945 10.38,-6.118 10.6,-6.13 l 0.23,-0.013 0.024,-0.954 z" style="fill:#231f20;fill-opacity:1;fill-rule:nonzero;stroke:none" id="path6594"/>
</g>
<g id="g6596" transform="translate(294.0474,73.2246)">
<path d="M 0,0 1.318,0 C 3.279,0 4.684,0.265 5.493,0.786 6.278,1.293 6.66,2.117 6.66,3.306 6.66,4.426 6.308,5.259 5.584,5.854 4.854,6.451 3.79,6.755 2.42,6.755 1.131,6.755 0.615,6.581 0.41,6.436 0.142,6.246 0,5.739 0,4.97 L 0,0 Z m 0,-1.23 0,-6.227 c 0,-0.973 0.205,-1.266 0.327,-1.354 0.138,-0.099 0.574,-0.264 1.974,-0.264 1.705,0 2.969,0.322 3.757,0.956 0.784,0.631 1.165,1.595 1.165,2.948 0,1.329 -0.38,2.326 -1.128,2.964 -0.76,0.648 -1.956,0.977 -3.555,0.977 l -2.54,0 z m 2.647,-9.076 -6.774,0 0,0.962 0.245,0.005 c 0.308,0.006 0.513,0.127 0.645,0.381 0.156,0.298 0.235,0.811 0.235,1.524 l 0,12.379 c 0,0.744 -0.079,1.269 -0.234,1.559 -0.133,0.248 -0.339,0.37 -0.652,0.383 l -0.239,0.009 0,0.952 4.099,0.101 c 0.44,0.008 0.902,0.018 1.387,0.03 0.493,0.012 0.766,0.018 0.822,0.018 2.16,0 3.948,-0.432 5.315,-1.283 C 8.901,5.839 9.614,4.7 9.614,3.329 9.614,2.317 9.203,1.442 8.392,0.729 7.781,0.193 6.949,-0.242 5.911,-0.57 c 1.185,-0.344 2.161,-0.874 2.912,-1.581 0.962,-0.908 1.449,-2.008 1.449,-3.271 0,-1.585 -0.675,-2.814 -2.008,-3.654 -1.296,-0.816 -3.186,-1.23 -5.617,-1.23" style="fill:#231f20;fill-opacity:1;fill-rule:nonzero;stroke:none" id="path6598"/>
</g>
<g id="g6600" transform="translate(309.7193,72.2842)">
<path d="m 0,0 c 0.164,-0.027 0.345,-0.047 0.539,-0.061 0.286,-0.018 0.635,-0.029 1.043,-0.029 1.94,0 3.389,0.327 4.303,0.973 0.9,0.635 1.338,1.589 1.338,2.92 0,1.299 -0.404,2.315 -1.198,3.022 C 5.222,7.537 4.058,7.898 2.563,7.898 1.56,7.898 0.867,7.769 0.506,7.514 0.17,7.277 0,6.806 0,6.113 L 0,0 Z m 10.859,-11.503 -0.347,0.147 C 8.767,-10.618 7.171,-9.357 5.769,-7.607 4.406,-5.906 3.254,-3.769 2.341,-1.25 2.238,-1.252 2.111,-1.255 1.961,-1.26 1.701,-1.268 1.512,-1.271 1.391,-1.271 1.076,-1.271 0.612,-1.259 0,-1.231 l 0,-5.262 c 0,-0.73 0.079,-1.245 0.234,-1.534 0.133,-0.247 0.338,-0.366 0.647,-0.371 l 0.245,-0.005 0,-0.962 -5.253,0 0,0.962 0.245,0.005 c 0.308,0.005 0.513,0.127 0.645,0.38 0.156,0.298 0.235,0.811 0.235,1.525 l 0,12.379 c 0,0.744 -0.079,1.268 -0.234,1.558 -0.133,0.248 -0.339,0.37 -0.652,0.383 l -0.239,0.01 0,0.945 4.236,0.203 C 0.703,9.01 1.188,9.027 1.568,9.039 1.95,9.052 2.234,9.058 2.42,9.058 4.829,9.058 6.78,8.576 8.221,7.628 9.693,6.655 10.44,5.345 10.44,3.731 10.44,2.539 9.975,1.5 9.055,0.646 8.209,-0.143 7.057,-0.694 5.625,-0.996 c 0.831,-2.339 1.682,-4.316 2.528,-5.881 0.871,-1.61 1.752,-2.803 2.618,-3.545 l 0.088,-0.074 0,-1.007 z" style="fill:#231f20;fill-opacity:1;fill-rule:nonzero;stroke:none" id="path6602"/>
</g>
<g id="g6604" transform="translate(326.6363,62.919)">
<path d="m 0,0 -5.301,0 0,0.94 0.236,0.015 c 0.32,0.019 0.53,0.146 0.661,0.399 0.152,0.293 0.229,0.804 0.229,1.518 l 0,12.379 c 0,0.729 -0.079,1.251 -0.235,1.548 -0.134,0.256 -0.341,0.381 -0.652,0.393 l -0.239,0.01 0,0.957 5.301,0 0,-0.957 -0.239,-0.01 C -0.552,17.18 -0.758,17.058 -0.891,16.81 -1.046,16.52 -1.125,15.995 -1.125,15.251 l 0,-12.379 c 0,-0.729 0.077,-1.244 0.229,-1.529 0.128,-0.244 0.337,-0.364 0.656,-0.376 L 0,0.957 0,0 Z" style="fill:#231f20;fill-opacity:1;fill-rule:nonzero;stroke:none" id="path6606"/>
</g>
<g id="g6608" transform="translate(332.5807,70.0156)">
<path d="M 0,0 4.813,0 2.496,7.645 0,0 Z m 10.854,-7.097 -5.284,0 0,0.918 0.198,0.043 c 0.206,0.045 0.366,0.13 0.489,0.259 0.11,0.116 0.164,0.249 0.164,0.407 0,0.097 -0.033,0.321 -0.193,0.836 l -1.011,3.273 -5.667,0 -0.711,-2.187 c -0.067,-0.221 -0.118,-0.439 -0.153,-0.645 -0.034,-0.208 -0.05,-0.387 -0.05,-0.546 0,-0.4 0.087,-0.721 0.258,-0.954 0.167,-0.23 0.408,-0.374 0.739,-0.442 l 0.2,-0.041 0,-0.921 -4.81,0 0,0.896 0.169,0.057 c 0.555,0.191 1.027,0.553 1.405,1.079 0.393,0.545 0.806,1.49 1.227,2.808 l 4.475,13.702 1.907,0 0.056,-0.173 4.884,-15.048 C 9.418,-4.621 9.684,-5.24 9.938,-5.617 10.157,-5.945 10.38,-6.118 10.6,-6.13 l 0.23,-0.013 0.024,-0.954 z" style="fill:#231f20;fill-opacity:1;fill-rule:nonzero;stroke:none" id="path6610"/>
</g>
<path d="m 137.46,58.7 -0.5,0 0,50.616 0.5,0 0,-50.616 z" style="fill:#231f20;fill-opacity:1;fill-rule:nonzero;stroke:none" id="path6612"/>
</g>
</g>
</g>
</svg>
